<mxfile host="app.diagrams.net" modified="2024-01-02T13:45:27.097Z" agent="Mozilla/5.0 (Macintosh; Intel Mac OS X 10_15_7) AppleWebKit/605.1.15 (KHTML, like Gecko) Version/15.6.1 Safari/605.1.15" etag="w__7YZyKj8hSADJ1SH9z" version="22.1.16" type="github">
  <diagram name="Page-1" id="Vow4etM9eGDagbmmr1m5">
    <mxGraphModel dx="474" dy="639" grid="0" gridSize="10" guides="1" tooltips="1" connect="1" arrows="1" fold="1" page="0" pageScale="1" pageWidth="827" pageHeight="1169" math="0" shadow="0">
      <root>
        <mxCell id="0" />
        <mxCell id="1" parent="0" />
        <mxCell id="5xs2VtXfBEx1eRWKS2mY-1" value="Actor" style="shape=umlActor;verticalLabelPosition=bottom;verticalAlign=top;html=1;outlineConnect=0;fontSize=16;" vertex="1" parent="1">
          <mxGeometry x="76" y="159" width="30" height="60" as="geometry" />
        </mxCell>
        <mxCell id="5xs2VtXfBEx1eRWKS2mY-3" value="" style="rounded=0;whiteSpace=wrap;html=1;fontSize=16;" vertex="1" parent="1">
          <mxGeometry x="209" y="23" width="120" height="60" as="geometry" />
        </mxCell>
      </root>
    </mxGraphModel>
  </diagram>
</mxfile>
